<mxfile host="app.diagrams.net" modified="2023-03-07T12:15:21.271Z" agent="5.0 (Windows NT 10.0; Win64; x64) AppleWebKit/537.36 (KHTML, like Gecko) Chrome/110.0.0.0 Safari/537.36" etag="zL6Ci6g7ES0LwcGyFgzv" version="21.0.2" type="github">
  <diagram name="第 1 页" id="FXX4XvlYrJtAJkdmc2iR">
    <mxGraphModel dx="1221" dy="629" grid="1" gridSize="10" guides="1" tooltips="1" connect="1" arrows="1" fold="1" page="1" pageScale="1" pageWidth="827" pageHeight="1169" math="0" shadow="0">
      <root>
        <mxCell id="0" />
        <mxCell id="1" parent="0" />
        <mxCell id="r-c2eP-AGXT1i2MDVRQQ-22" value="" style="rounded=0;whiteSpace=wrap;html=1;" parent="1" vertex="1">
          <mxGeometry x="556" y="30" width="140" height="480" as="geometry" />
        </mxCell>
        <mxCell id="r-c2eP-AGXT1i2MDVRQQ-21" value="" style="rounded=0;whiteSpace=wrap;html=1;" parent="1" vertex="1">
          <mxGeometry x="347" y="30" width="140" height="480" as="geometry" />
        </mxCell>
        <mxCell id="r-c2eP-AGXT1i2MDVRQQ-20" value="" style="rounded=0;whiteSpace=wrap;html=1;" parent="1" vertex="1">
          <mxGeometry x="130" y="30" width="140" height="480" as="geometry" />
        </mxCell>
        <mxCell id="r-c2eP-AGXT1i2MDVRQQ-5" style="edgeStyle=orthogonalEdgeStyle;rounded=0;orthogonalLoop=1;jettySize=auto;html=1;exitX=0.5;exitY=1;exitDx=0;exitDy=0;entryX=0.5;entryY=0;entryDx=0;entryDy=0;" parent="1" source="r-c2eP-AGXT1i2MDVRQQ-1" target="r-c2eP-AGXT1i2MDVRQQ-2" edge="1">
          <mxGeometry relative="1" as="geometry" />
        </mxCell>
        <mxCell id="r-c2eP-AGXT1i2MDVRQQ-1" value="选择检测包" style="rounded=1;whiteSpace=wrap;html=1;" parent="1" vertex="1">
          <mxGeometry x="141" y="70" width="114" height="50" as="geometry" />
        </mxCell>
        <mxCell id="odWXbdlNCKfDor3IVfy8-5" style="edgeStyle=orthogonalEdgeStyle;rounded=0;orthogonalLoop=1;jettySize=auto;html=1;exitX=1;exitY=0.5;exitDx=0;exitDy=0;entryX=0;entryY=0.5;entryDx=0;entryDy=0;" edge="1" parent="1" source="r-c2eP-AGXT1i2MDVRQQ-2" target="r-c2eP-AGXT1i2MDVRQQ-3">
          <mxGeometry relative="1" as="geometry" />
        </mxCell>
        <mxCell id="r-c2eP-AGXT1i2MDVRQQ-2" value="点击构建检测路径图" style="rounded=1;whiteSpace=wrap;html=1;" parent="1" vertex="1">
          <mxGeometry x="143" y="150" width="110" height="55" as="geometry" />
        </mxCell>
        <mxCell id="odWXbdlNCKfDor3IVfy8-6" style="edgeStyle=orthogonalEdgeStyle;rounded=0;orthogonalLoop=1;jettySize=auto;html=1;exitX=1;exitY=0.5;exitDx=0;exitDy=0;" edge="1" parent="1" source="r-c2eP-AGXT1i2MDVRQQ-3" target="r-c2eP-AGXT1i2MDVRQQ-10">
          <mxGeometry relative="1" as="geometry" />
        </mxCell>
        <mxCell id="r-c2eP-AGXT1i2MDVRQQ-3" value="获取数据" style="rounded=1;whiteSpace=wrap;html=1;" parent="1" vertex="1">
          <mxGeometry x="366" y="153" width="111" height="50" as="geometry" />
        </mxCell>
        <mxCell id="r-c2eP-AGXT1i2MDVRQQ-17" style="edgeStyle=orthogonalEdgeStyle;rounded=0;orthogonalLoop=1;jettySize=auto;html=1;exitX=0;exitY=0.5;exitDx=0;exitDy=0;" parent="1" source="r-c2eP-AGXT1i2MDVRQQ-10" target="r-c2eP-AGXT1i2MDVRQQ-12" edge="1">
          <mxGeometry relative="1" as="geometry" />
        </mxCell>
        <mxCell id="r-c2eP-AGXT1i2MDVRQQ-10" value="查询数据" style="rounded=1;whiteSpace=wrap;html=1;" parent="1" vertex="1">
          <mxGeometry x="571" y="230" width="110" height="50" as="geometry" />
        </mxCell>
        <mxCell id="r-c2eP-AGXT1i2MDVRQQ-18" style="edgeStyle=orthogonalEdgeStyle;rounded=0;orthogonalLoop=1;jettySize=auto;html=1;exitX=0.5;exitY=1;exitDx=0;exitDy=0;entryX=0.5;entryY=0;entryDx=0;entryDy=0;" parent="1" source="r-c2eP-AGXT1i2MDVRQQ-12" target="r-c2eP-AGXT1i2MDVRQQ-13" edge="1">
          <mxGeometry relative="1" as="geometry" />
        </mxCell>
        <mxCell id="r-c2eP-AGXT1i2MDVRQQ-12" value="接收数据" style="rounded=1;whiteSpace=wrap;html=1;" parent="1" vertex="1">
          <mxGeometry x="366" y="230" width="110" height="50" as="geometry" />
        </mxCell>
        <mxCell id="r-c2eP-AGXT1i2MDVRQQ-19" style="edgeStyle=orthogonalEdgeStyle;rounded=0;orthogonalLoop=1;jettySize=auto;html=1;exitX=0.5;exitY=1;exitDx=0;exitDy=0;" parent="1" source="r-c2eP-AGXT1i2MDVRQQ-13" target="r-c2eP-AGXT1i2MDVRQQ-14" edge="1">
          <mxGeometry relative="1" as="geometry" />
        </mxCell>
        <mxCell id="r-c2eP-AGXT1i2MDVRQQ-13" value="清洗数据" style="rounded=1;whiteSpace=wrap;html=1;" parent="1" vertex="1">
          <mxGeometry x="366" y="320" width="110" height="50" as="geometry" />
        </mxCell>
        <mxCell id="r-c2eP-AGXT1i2MDVRQQ-16" style="edgeStyle=orthogonalEdgeStyle;rounded=0;orthogonalLoop=1;jettySize=auto;html=1;exitX=0;exitY=0.5;exitDx=0;exitDy=0;entryX=1;entryY=0.5;entryDx=0;entryDy=0;" parent="1" source="r-c2eP-AGXT1i2MDVRQQ-14" target="r-c2eP-AGXT1i2MDVRQQ-15" edge="1">
          <mxGeometry relative="1" as="geometry" />
        </mxCell>
        <mxCell id="r-c2eP-AGXT1i2MDVRQQ-14" value="绘制检测路径图" style="rounded=1;whiteSpace=wrap;html=1;" parent="1" vertex="1">
          <mxGeometry x="366" y="410" width="110" height="50" as="geometry" />
        </mxCell>
        <mxCell id="r-c2eP-AGXT1i2MDVRQQ-15" value="展示检测路径图" style="rounded=1;whiteSpace=wrap;html=1;" parent="1" vertex="1">
          <mxGeometry x="146" y="410" width="110" height="50" as="geometry" />
        </mxCell>
        <mxCell id="r-c2eP-AGXT1i2MDVRQQ-23" value="漏洞检测系统前端" style="text;html=1;strokeColor=none;fillColor=none;align=center;verticalAlign=middle;whiteSpace=wrap;rounded=0;" parent="1" vertex="1">
          <mxGeometry x="151" y="30" width="100" height="30" as="geometry" />
        </mxCell>
        <mxCell id="r-c2eP-AGXT1i2MDVRQQ-24" value="漏洞检测系统后端" style="text;html=1;strokeColor=none;fillColor=none;align=center;verticalAlign=middle;whiteSpace=wrap;rounded=0;" parent="1" vertex="1">
          <mxGeometry x="371" y="30" width="100" height="30" as="geometry" />
        </mxCell>
        <mxCell id="r-c2eP-AGXT1i2MDVRQQ-25" value="漏洞检测系统数据库" style="text;html=1;strokeColor=none;fillColor=none;align=center;verticalAlign=middle;whiteSpace=wrap;rounded=0;" parent="1" vertex="1">
          <mxGeometry x="571" y="30" width="110" height="30" as="geometry" />
        </mxCell>
        <mxCell id="odWXbdlNCKfDor3IVfy8-3" value="传递检测包id" style="text;html=1;strokeColor=none;fillColor=none;align=center;verticalAlign=middle;whiteSpace=wrap;rounded=0;" vertex="1" parent="1">
          <mxGeometry x="268" y="150" width="80" height="30" as="geometry" />
        </mxCell>
        <mxCell id="odWXbdlNCKfDor3IVfy8-7" value="连接数据库" style="text;html=1;strokeColor=none;fillColor=none;align=center;verticalAlign=middle;whiteSpace=wrap;rounded=0;" vertex="1" parent="1">
          <mxGeometry x="481" y="150" width="83" height="30" as="geometry" />
        </mxCell>
        <mxCell id="odWXbdlNCKfDor3IVfy8-8" value="数据格式转换" style="text;html=1;strokeColor=none;fillColor=none;align=center;verticalAlign=middle;whiteSpace=wrap;rounded=0;" vertex="1" parent="1">
          <mxGeometry x="417" y="287" width="60" height="30" as="geometry" />
        </mxCell>
        <mxCell id="odWXbdlNCKfDor3IVfy8-9" value="图规范数据" style="text;html=1;strokeColor=none;fillColor=none;align=center;verticalAlign=middle;whiteSpace=wrap;rounded=0;" vertex="1" parent="1">
          <mxGeometry x="417" y="378" width="60" height="30" as="geometry" />
        </mxCell>
        <mxCell id="odWXbdlNCKfDor3IVfy8-10" value="SVG类型图&lt;br&gt;节点数据" style="text;html=1;strokeColor=none;fillColor=none;align=center;verticalAlign=middle;whiteSpace=wrap;rounded=0;" vertex="1" parent="1">
          <mxGeometry x="275" y="400" width="64" height="30" as="geometry" />
        </mxCell>
      </root>
    </mxGraphModel>
  </diagram>
</mxfile>
